<?xml version="1.0" encoding="utf-8"?>
<!-- Generator: Adobe Illustrator 22.1.0, SVG Export Plug-In . SVG Version: 6.00 Build 0)  -->
<svg version="1.1" id="Слой_1" xmlns="http://www.w3.org/2000/svg" xmlns:xlink="http://www.w3.org/1999/xlink" x="0px" y="0px"
	 viewBox="0 0 1536.7 256.1" style="enable-background:new 0 0 1536.7 256.1;" xml:space="preserve">
<style type="text/css">
	.st0{fill:#055605;}
	.st1{fill:#056D05;}
	.st2{fill:#038C03;}
	.st3{fill:#08BC08;}
	.st4{fill:#079E07;}
	.st5{fill:#0A750A;}
	.st6{fill:#0C8E0C;}
	.st7{fill:#067F06;}
	.st8{fill:#0FB20F;}
	.st9{fill:#099309;}
	.st10{fill:#109E10;}
</style>
<g id="Clover">
	<path d="M120.6,90.5V68.9c0-17.9-4.4-31.7-13.3-41.3C98.4,18,85.5,13.2,68.6,13.2C51.7,13.2,38.8,18,30,27.6
		C21.1,37.2,16.6,51,16.6,68.9v115.3c0,17.9,4.4,31.7,13.3,41.3c8.9,9.6,21.8,14.4,38.6,14.4c16.9,0,29.8-4.8,38.7-14.4
		c8.9-9.6,13.3-23.4,13.3-41.3v-29.5h-33v31.7c0,14.4-6,21.5-18.1,21.5c-12,0-18.1-7.2-18.1-21.5V66.7c0-14.6,6-21.9,18.1-21.9
		c12,0,18.1,7.3,18.1,21.9v23.8H120.6z"/>
	<path d="M160.2,237.5V15.7H195v190.1h57.3v31.7H160.2z"/>
	<path d="M537.8,15.7l26.6,180.9L591,15.7h32l-34.2,221.8h-52L502.6,15.7H537.8z"/>
	<path d="M737.9,47.4V15.7h-95v221.8h95v-31.7h-60.2v-64.9h47.8v-31.7h-47.8V47.4H737.9z"/>
	<path d="M870.4,210.5v-34.2c0-24.9-7.7-40.7-23.1-47.2c8.3-3.9,14.4-10.2,18.1-18.8c1.9-4.3,3.2-9.2,3.9-14.6
		c0.5-3.6,0.7-7.4,0.7-11.5V66.7c0-17.3-4.1-30.1-12.4-38.5s-21.3-12.5-39.3-12.5h-52.6v221.8h34.8v-90.3h12c8,0,13.8,2.2,17.4,6.5
		c3.6,4.3,5.4,11.6,5.4,21.7v34.8c0,11.8,1.1,20.9,3.2,27.3h35.5C871.7,231.6,870.4,222.6,870.4,210.5z M835.3,92
		c0,6.6-1.1,11.8-3.2,15.4c-0.6,1-1.2,1.9-2,2.6c-3.5,3.6-8.7,5.4-15.7,5.4h-13.6V47.4h16.8c11.8,0,17.7,7.6,17.7,22.8V92z"/>
</g>
<g id="Team_back">
	<polygon class="st0" points="934.3,15.7 1042,15.7 1042,47.4 1005.6,47.4 1005.6,237.5 970.8,237.5 970.8,47.4 934.3,47.4 	"/>
	<polygon class="st0" points="1176,15.7 1176,47.4 1115.8,47.4 1115.8,109.2 1163.7,109.2 1163.7,140.8 1115.8,140.8 1115.8,205.8 
		1176,205.8 1176,237.5 1081,237.5 1081,15.7 	"/>
	<path class="st0" d="M1331.4,220.2l-9.4-58.6l-7.1-44.2l-8.3-52.1l-3.3-20.4l-0.3-2l-4.3-27.1h-51l-2.4,14.9l-6.7,42l-4.7,29.5
		l-3.1,19.4l-1.5,9l-10.2,64l-6.9,43h32l5.3-35.7l0.7-4.5h42.8l2.3,15.4l3.7,24.8h35.2L1331.4,220.2z M1254.6,167.1l4.3-28.6
		L1265,98l1.9-12.8l1.4-9.5l3.1-20.6l2.4,16.1l2.7,18.3l0.3,1.7l8.4,56.4l3,19.7H1254.6z"/>
	<polygon class="st0" points="1520.1,15.7 1520.1,237.5 1487.1,237.5 1487.1,78.4 1478.9,132.9 1468.2,203.5 1464.2,230.2 
		1463.1,237.5 1430.1,237.5 1429,231.1 1423.5,197.3 1416.1,152.7 1413.5,137.1 1404.1,80.6 1404.1,237.5 1373.7,237.5 1373.7,15.7 
		1422.2,15.7 1425.1,33.7 1430.7,67.9 1430.9,69.3 1438.4,114.9 1443.7,147.6 1447.8,173.1 1452.1,144.8 1462.8,73.8 1465.7,55 
		1471.6,15.7 	"/>
</g>
<g id="Team">
	<g>
		<path class="st1" d="M1005.6,188.8v16.1c-11.9,4.4-23.6,9.7-34.8,15.8v-8C982.5,205,994,196.9,1005.6,188.8z"/>
		<path class="st1" d="M1163.7,123.5v17.3h-47.8v43.7c-11.7,0.3-23.3,1.1-34.8,2.4v-43.9c13.9-6.4,28.4-11.7,43.9-15.2
			C1138.1,125.2,1151,123.8,1163.7,123.5z"/>
		<path class="st1" d="M1331.4,220.2c-12-2.3-24-4.8-36.1-7.5l-2.3-15.4h-42.8l-0.7,4.5c-2.3-0.6-4.7-1.2-7.1-1.8
			c-7.7-2-15.5-3.8-23.4-5.5l10.2-64c10,2.3,19.8,5,29.6,8l-4.3,28.6h33.6l-3-19.7c12.3,4.5,24.5,9.3,36.7,14.2L1331.4,220.2z"/>
		<path class="st1" d="M1468.2,203.5l-4,26.7c-11.8,0.8-23.5,1.1-35.1,0.9l-5.6-33.8C1438.3,200.6,1453.3,202.6,1468.2,203.5z"/>
		<path class="st1" d="M1404.1,192.3V230c-10.2-0.7-20.3-1.7-30.4-3v-45.1c6.9,2.6,13.9,5,20.9,7.4
			C1397.8,190.4,1401,191.4,1404.1,192.3z"/>
		<path class="st1" d="M1520.1,202.1v18.5c-7.8,2.6-15.8,4.7-24,6.2c-3,0.5-6,0.9-9,1.3v-24C1498.1,203.9,1509.1,203.3,1520.1,202.1
			z"/>
	</g>
	<g>
		<path class="st2" d="M1005.6,116v72.9c-11.6,8.1-23.1,16.1-34.8,23.9v-70.2C981.8,133.1,993.5,124.2,1005.6,116z"/>
		<path class="st2" d="M1163.7,109.2v14.3c-12.7,0.3-25.6,1.7-38.8,4.4c-15.5,3.6-30,8.8-43.9,15.2V77.2
			c11.4-4.1,23.1-7.6,34.8-10.2v42.1H1163.7z"/>
		<path class="st2" d="M1266.9,85.1L1265,98l-6.1,40.6c-9.8-3-19.7-5.8-29.6-8l1.5-9l3.1-19.4l4.7-29.5c1.7,0.6,3.5,1.2,5.2,1.9
			C1251.3,77.8,1259.3,81.1,1266.9,85.1z"/>
		<path class="st2" d="M1322,161.6c-12.2-4.9-24.4-9.7-36.7-14.2l-8.4-56.4c1,0.7,2,1.4,3,2.1c11.7,8,23.3,16.4,35.1,24.2
			L1322,161.6z"/>
		<path class="st2" d="M1520.1,111v91.1c-11,1.2-22,1.9-32.9,1.9v-75.4C1498.1,122.7,1508.9,116.5,1520.1,111z"/>
		<path class="st2" d="M1404.1,152.7v39.6c-3.2-0.9-6.3-1.9-9.5-3c-7-2.3-14-4.8-20.9-7.4v-34.5
			C1383.5,150.4,1393.6,152.3,1404.1,152.7z"/>
		<path class="st2" d="M1478.9,132.9l-10.7,70.6c-14.9-0.9-29.9-2.9-44.7-6.2l-7.4-44.7c5.2-0.3,10.5-1,16-2.1c4-0.8,7.9-1.9,11.6-3
			l4.2,25.6l4.3-28.4C1461.4,141.4,1470.3,137.3,1478.9,132.9z"/>
	</g>
	<g>
		<path class="st3" d="M1042,15.7V22c-28.4,7.1-50.1,24.3-71.3,42.7V47.4h-36.4V15.7H1042z"/>
		<path class="st3" d="M1176,15.7v3.4c-9.8-1.3-19.6-2.5-29.4-3.4H1176z"/>
		<path class="st3" d="M1303,42.8c-19.1-4.3-38.3-8.4-57.7-12.2l2.4-14.9h51L1303,42.8z"/>
		<path class="st3" d="M1520.1,15.7v50c-18.2,6.3-37.2,9.7-57.3,8.1l2.8-18.8l5.9-39.3H1520.1z"/>
		<path class="st3" d="M1430.9,69.3c-19.3-3.2-38.3-6.9-57.2-10.9V15.7h48.5l2.9,18l5.6,34.2L1430.9,69.3z"/>
	</g>
	<g>
		<path class="st4" d="M1042,22v25.4h-36.4V116c-12.2,8.2-23.8,17.1-34.8,26.5V64.7C991.9,46.3,1013.6,29.1,1042,22z"/>
		<path class="st4" d="M1176,19.1v28.3h-60.2V67c-11.8,2.6-23.4,6-34.8,10.2V15.7h65.7C1156.4,16.6,1166.2,17.7,1176,19.1z"/>
		<path class="st4" d="M1314.9,117.4c-11.8-7.8-23.4-16.2-35.1-24.2c-1-0.7-2-1.4-3-2.1l-0.3-1.7l-2.7-18.3l-2.4-16.1l-3.1,20.6
			l-1.4,9.5c-7.6-4-15.6-7.3-23.1-10.7c-1.7-0.7-3.5-1.3-5.2-1.9l6.7-42c19.4,3.8,38.6,8,57.7,12.2l0.3,2l3.3,20.4L1314.9,117.4z"/>
		<path class="st4" d="M1520.1,65.7V111c-11.1,5.5-21.9,11.7-32.9,17.6V78.4l-8.3,54.5c-8.6,4.4-17.5,8.5-26.8,11.9l10.7-70.9
			C1482.9,75.4,1501.9,72.1,1520.1,65.7z"/>
		<path class="st4" d="M1443.7,147.6c-3.8,1.1-7.7,2.1-11.6,3c-5.4,1.1-10.8,1.8-16,2.1l-2.6-15.5l-9.4-56.5v72.1
			c-10.5-0.5-20.6-2.4-30.4-5.4V58.5c18.9,4,37.9,7.7,57.2,10.9l7.4,45.6L1443.7,147.6z"/>
	</g>
	<g>
		<path class="st0" d="M1005.6,204.9v32.6h-34.8v-16.8C982,214.6,993.7,209.3,1005.6,204.9z"/>
		<path class="st0" d="M1176,205.8v31.7h-95V187c11.5-1.4,23.2-2.1,34.8-2.4v21.2H1176z"/>
		<path class="st0" d="M1334.1,237.5H1299l-3.7-24.8c12.1,2.7,24.1,5.3,36.1,7.5L1334.1,237.5z"/>
		<path class="st0" d="M1249.5,201.7l-5.3,35.7h-32l6.9-43c7.9,1.6,15.6,3.5,23.4,5.5C1244.8,200.6,1247.1,201.1,1249.5,201.7z"/>
		<path class="st0" d="M1404.1,230v7.5h-30.4V227C1383.8,228.3,1394,229.3,1404.1,230z"/>
		<path class="st0" d="M1464.2,230.2l-1.1,7.3h-32.9l-1.1-6.4C1440.7,231.3,1452.4,231,1464.2,230.2z"/>
		<path class="st0" d="M1520.1,220.5v17h-32.9v-9.5c3-0.4,6-0.8,9-1.3C1504.3,225.2,1512.3,223.1,1520.1,220.5z"/>
	</g>
</g>
<g>
	<path class="st5" d="M486.1,140.3c2.6,6.8,1.4,16.7-10.3,30.7c-5.3,6.4-12.2,8.9-19.8,8.8c-9-0.1-19.1-3.9-29-9.3
		c-6.4-3.5-12.6-7.6-18.5-11.9c-3.7-2.7-7.3-5.5-10.6-8.2c-1.1-0.9-2.2-1.9-3.3-2.8c-1-0.8-1.9-1.6-2.8-2.4
		c-6.7-5.8-11.7-10.7-13.8-12.7c0.1,0.1,0.1,0.2,0.2,0.2c0.1,0,0.1,0.1,0.1,0.1c1.1,1.2,2.8,3.1,5,5.5c0.3,0.4,0.7,0.7,1,1.1
		c0.2,0.3,0.4,0.5,0.7,0.7c0.5,0.5,1,1.1,1.5,1.7c0.1,0.1,0.2,0.2,0.2,0.3c0.6,0.7,1.3,1.5,2,2.3c0.2,0.2,0.3,0.4,0.5,0.6
		c0.2,0.2,0.4,0.4,0.6,0.7c1.8,2.2,3.8,4.6,5.8,7.1c1,1.3,2,2.6,3.1,4c1,1.3,2,2.7,3,4v0c0.7,0.9,1.3,1.9,2,2.8c2,2.8,4,5.8,5.9,8.8
		c1,1.6,2,3.1,2.9,4.7c0.5,0.9,1,1.7,1.5,2.6c8.8,15.3,14.6,31.4,10.4,43.4c-1.5,4.5-4.5,8.5-9.2,11.6c-17.1,11.3-28.8,10-36.5,5.6
		c-7-4.1-15.7-3.8-22.8,0c-6.8,3.6-17.3,3.5-32.7-9.4c-1.2-1-2.3-2.1-3.2-3.2c-0.5-0.6-0.9-1.1-1.3-1.7c-0.7-0.9-1.2-1.9-1.7-2.9
		c-0.4-0.7-0.7-1.4-0.9-2.2c-1.9-5.1-2-10.9-0.9-16.9c1.7-8.8,6.1-18.2,11.6-27.3c3.8-6.3,8.2-12.4,12.5-18
		c9.2-11.9,18.3-21.4,21.9-25c0,0,0,0,0,0c0.4-0.4,0.8-0.8,1-1l0,0c-2,1.7-8.9,7.6-18.3,14.7c-0.7,0.5-1.3,1-2,1.5
		c-5.3,3.9-11.3,8.1-17.6,12.2c-1.1,0.7-2.3,1.4-3.4,2.1c-5,3.1-10.1,6-15.3,8.6c-2.2,1.1-4.4,2.1-6.5,3.1c-6.9,3-13.7,5.2-19.9,6.1
		c-9.4,1.3-17.5-0.4-23.1-6.9c-0.5-0.6-0.9-1.2-1.4-1.8c-0.5-0.7-1-1.5-1.4-2.3c-3.7-6.8-5.6-12.6-6.2-17.3
		c-0.8-6.8,1-11.7,3.9-15.2c2.3-2.9,3.9-6.2,4.6-9.7c1.1-4.9,0.6-10.2-1.6-15c-1.3-2.9-2.1-6.1-2-9.7c0.1-6.5,3.1-14.1,11.1-22.8
		c0.5-0.5,1-1.1,1.5-1.6c4-4,8.5-6.4,13.5-7.4c2.5-0.5,5-0.7,7.7-0.6c13.4,0.5,28.6,8.4,41.7,17.6c14.8,10.3,27.1,22.2,31.7,26.7
		c-0.3-0.4-0.7-0.8-1.2-1.3c0,0,0,0,0,0c-0.3-0.3-0.6-0.7-1-1.1c-0.1-0.2-0.3-0.3-0.5-0.5c-1.5-1.7-3.4-3.8-5.5-6.3
		c-0.3-0.4-0.7-0.8-1.1-1.2c-0.2-0.2-0.4-0.5-0.6-0.7c-0.3-0.3-0.6-0.7-0.9-1.1c-0.9-1.1-1.8-2.2-2.8-3.4c-0.6-0.8-1.3-1.6-1.9-2.4
		c-0.6-0.8-1.3-1.6-2-2.5c-1-1.4-2.1-2.8-3.2-4.2c-0.3-0.4-0.7-0.9-1-1.3c-1-1.3-1.9-2.6-2.9-4c-1.7-2.4-3.4-4.8-5-7.3
		c-0.6-0.9-1.1-1.8-1.7-2.7c-0.6-1-1.2-2-1.8-3c-0.3-0.5-0.6-1-0.9-1.5c-0.1-0.1-0.2-0.3-0.3-0.4c-0.2-0.4-0.4-0.7-0.6-1.1
		c-0.6-1-1.1-2-1.7-3c-0.9-1.6-1.7-3.2-2.4-4.8c-1.4-2.8-2.6-5.7-3.6-8.5c-2.6-7.1-3.8-14-2.9-20.1c0.9-6.1,3.9-11.3,9.9-15.2
		c3-1.9,5.8-3.4,8.4-4.6c9.4-4.2,16.7-3.7,22.1-1.2c2.3,1.1,4.8,1.9,7.3,2.5c0.1,0.1,0.1,0.1,0.2,0.1h0c7.2,1.6,14.7,0.9,21.3-2.8
		c6.6-3.7,16.1-3.4,29.6,7.3c0.4,0.3,0.8,0.7,1.2,1c0,0,0,0,0,0h0c0.4,0.3,0.7,0.7,1,1c0.1,0.1,0.2,0.2,0.2,0.2
		c0.3,0.3,0.7,0.7,1,1.1c1.1,1.3,2.1,2.7,2.9,4.2c2,3.9,2.9,8.2,2.8,12.8c0,3.1-0.5,6.3-1.3,9.6c-1.7,7-4.9,14.3-8.8,21.5
		c-3.6,6.7-7.9,13.2-12.3,19.2c-3.9,5.4-7.9,10.4-11.4,14.7c-6.2,7.5-11.2,12.7-12.5,14l0,0c0.3-0.3,0.7-0.7,1.4-1.3
		c0,0,0,0,0.1-0.1c4.7-4.2,18-15.8,33.8-26.3c13.3-8.8,28.4-16.7,41.6-18.7c6.9-1,13.2-0.4,18.5,2.5c3.1,1.7,5.9,4.3,8.3,7.8
		c0,0,0,0,0,0.1c9.5,14.3,10.1,24.4,7.5,31.3c-2.5,6.8-3.4,14-2.1,21C484.8,136.5,485.4,138.4,486.1,140.3z"/>
	<g>
		<path class="st1" d="M424.3,223.1c-27.3,7.3-58.6-1-87.2,0.9c-5.6,0-11.5,1.5-17.2,3.8c-0.5-0.6-0.9-1.1-1.3-1.7
			c-0.7-0.9-1.2-1.9-1.7-2.9c-0.4-0.7-0.7-1.4-0.9-2.2c-1.9-5.1-2-10.9-0.9-16.9c3.1,0.3,6.2,0.7,9.3,1.2c0.6,0.1,1.3,0.2,1.9,0.3
			c4.5,0.7,9,1.5,13.5,2.5c22.7,5.3,45.4-4,54.7-24c2.8-5.6,7.6-14.5,7-23.1c0.7,0.9,1.3,1.9,2,2.8c2,2.8,4,5.8,5.9,8.8
			c1,1.6,2,3.1,2.9,4.7c0.5,0.9,1,1.7,1.5,2.6C422.7,195,428.5,211.1,424.3,223.1z"/>
		<path class="st0" d="M424.3,223.1c-1.5,4.5-4.5,8.5-9.2,11.6c-17.1,11.3-28.8,10-36.5,5.6c-7-4.1-15.7-3.8-22.8,0
			c-6.8,3.6-17.3,3.5-32.7-9.4c-1.2-1-2.3-2.1-3.2-3.2c5.7-2.3,11.6-3.8,17.2-3.8C365.8,222.1,397.1,230.4,424.3,223.1z"/>
		<path class="st2" d="M394.6,184c-9.3,20-32,29.4-54.7,24c-4.5-0.9-9-1.8-13.5-2.5c-0.6-0.1-1.3-0.2-1.9-0.3
			c-3.1-0.5-6.2-0.8-9.3-1.2c1.7-8.8,6.1-18.2,11.6-27.3c20.7-4.7,43.3-5.9,62.5-18.2c2.1-1.1,5.1-3,6.2-5.7c1,1.3,2,2.6,3.1,4
			c1,1.3,2,2.7,3,4v0C402.2,169.4,397.4,178.3,394.6,184z"/>
		<path class="st0" d="M475.8,171c-5.3,6.4-12.2,8.9-19.8,8.8c-3.8-8.7-2.6-18.7,2.7-26.6c5.1-9.2,14.9-17.6,25.8-18.7
			c0.3,1.9,0.9,3.9,1.6,5.7C488.6,147.1,487.4,157,475.8,171z"/>
		<path class="st6" d="M421.6,39.1c0,3.1-0.5,6.3-1.3,9.6c-25.1,11-55,1.9-83.2-2.3c-7.5-0.9-14.4,2.1-20.5,6.3c0,0,0,0,0,0
			c-2.6-7.1-3.8-14-2.9-20.1c0,0,0.1,0,0.1,0c7.4-1.9,15.2-2.3,23.4-0.9C365.4,37.4,394.6,46.9,421.6,39.1z"/>
		<path class="st7" d="M421.6,39.1c-26.9,7.8-56.2-1.7-84.4-7.4c-8.2-1.4-16-1-23.4,0.9c0,0-0.1,0-0.1,0c0.9-6.1,3.9-11.3,9.9-15.2
			c3-1.9,5.8-3.4,8.4-4.6c0.1,0,0.2,0,0.2,0.1c0.5,0.1,0.9,0.2,1.4,0.3c0.5,0.1,0.9,0.2,1.4,0.4c0.9,0.3,1.9,0.5,2.8,0.9
			c0.6,0.2,1.2,0.4,1.8,0.7c0.2,0.1,0.3,0.1,0.5,0.2c0.6,0.2,1.2,0.5,1.8,0.8c0.5,0.2,0.9,0.4,1.4,0.6c0.5,0.2,0.9,0.4,1.4,0.6
			c0.4,0.2,0.8,0.4,1.2,0.6c4.1,2.1,8.2,4.4,12.3,6.8c0.9,0.5,1.7,1,2.6,1.5c0.9,0.5,1.8,1,2.8,1.5c0.5,0.2,0.9,0.5,1.3,0.7
			c2.7,1.4,5.4,2.7,8.2,3.7c0.9,0.3,1.9,0.7,2.8,1c14.8,4.6,30.3,0.9,42.9-6.7C420.8,30.2,421.6,34.5,421.6,39.1z"/>
		<path class="st1" d="M418.8,26.3c-12.6,7.6-28,11.4-42.9,6.7c-0.9-0.3-1.9-0.6-2.8-1c-2.8-1.1-5.5-2.3-8.2-3.7
			c-0.4-0.2-0.9-0.5-1.3-0.7c-0.9-0.5-1.9-1-2.8-1.5c-0.9-0.5-1.7-1-2.6-1.5c-4.1-2.3-8.2-4.7-12.3-6.8c-0.4-0.2-0.8-0.4-1.2-0.6
			c-0.5-0.2-0.9-0.4-1.4-0.6c-0.5-0.2-0.9-0.4-1.4-0.6c-0.6-0.3-1.2-0.5-1.8-0.8c-0.1-0.1-0.3-0.1-0.5-0.2c-0.6-0.2-1.2-0.5-1.8-0.7
			c-0.9-0.3-1.8-0.6-2.8-0.9c-0.5-0.1-0.9-0.3-1.4-0.4c-0.5-0.1-0.9-0.2-1.4-0.3c-0.1,0-0.2,0-0.2-0.1c9.4-4.2,16.7-3.7,22.1-1.2
			c2.3,1.1,4.8,1.9,7.3,2.5c0.1,0.1,0.1,0.1,0.2,0.1h0c15.1,11.8,35.7,16.4,52.1,5.5h0c0.4,0.3,0.7,0.7,1,1c0.1,0.1,0.2,0.2,0.2,0.2
			c0.3,0.3,0.7,0.7,1,1.1C417,23.5,418,24.8,418.8,26.3z"/>
		<path class="st0" d="M413.6,19.8c-16.4,10.9-37,6.3-52.1-5.5c7.2,1.6,14.7,0.9,21.3-2.8c6.6-3.7,16.1-3.4,29.6,7.3
			C412.8,19.1,413.2,19.5,413.6,19.8C413.6,19.8,413.6,19.8,413.6,19.8z"/>
		<path class="st8" d="M399.3,89.4c-3.9,5.4-7.9,10.4-11.4,14.7c-4.4,2.2-9.3,1.7-13.3-0.3c-14.1-4.7-24.1-17.7-40-18.9
			c-1.7-2.4-3.4-4.8-5-7.3c-0.6-0.9-1.1-1.8-1.7-2.7c-0.6-1-1.2-2-1.8-3c-0.3-0.5-0.6-1-0.9-1.5c-0.1-0.1-0.2-0.3-0.3-0.4h0
			c6.4-2.9,12.7-4.5,17.6,0.4C358.3,83.3,380.6,93.9,399.3,89.4z"/>
		<path class="st0" d="M279,180.9c-9.4,1.3-17.5-0.4-23.1-6.9c-0.5-0.6-0.9-1.2-1.4-1.8c-0.5-0.7-1-1.5-1.4-2.3
			c-3.7-6.8-5.6-12.6-6.2-17.3c0,0,0,0,0.1,0C260.4,157.3,270.8,168.9,279,180.9z"/>
		<path class="st1" d="M299,174.8c-6.9,3-13.7,5.2-19.9,6.1c-8.3-12-18.6-23.6-32-28.3c0,0,0,0-0.1,0c-0.8-6.8,1-11.7,3.9-15.2
			c2.3-2.9,3.9-6.2,4.6-9.7c0,0,0.1,0,0.1,0c10.5,2.2,20.2,7.2,26.8,16.2C289.7,153.2,292.9,164.1,299,174.8z"/>
		<path class="st9" d="M324.2,161c-1.1,0.7-2.3,1.4-3.4,2.1c-20.3-24.7-28.8-69.8-57.6-82.9c0,0-0.1,0-0.1-0.1
			c0.5-0.5,1-1.1,1.5-1.6c4-4,8.5-6.4,13.5-7.4c0,0,0,0.1,0,0.1c0.6,2.8,1.7,5.7,3.1,8.5C295.5,106.1,332,127.2,324.2,161z"/>
		<path class="st10" d="M324.2,161c7.8-33.8-28.6-54.9-43.1-81.2c-1.4-2.8-2.5-5.7-3.1-8.5c0,0,0-0.1,0-0.1c2.5-0.5,5-0.7,7.7-0.6
			c0.1,0,0.2,0.1,0.3,0.1c13.2,4.8,25.3,13.5,32.5,25.2c10.2,15.4,8.2,39.3,23.3,53C336.5,152.7,330.5,157,324.2,161z"/>
		<path class="st3" d="M410.6,90.6c-1.1,1.3-2.1,2.6-3.1,4c-0.3,0.4-0.6,0.8-0.9,1.2c-0.5,0.6-0.9,1.2-1.4,1.9
			c-2.8,3.9-5.2,7.9-7.3,12c-0.2,0.4-0.5,0.9-0.7,1.3c-2.6,5.4-4.5,11-5.2,16.8c-0.1,0.7-0.2,1.5-0.2,2.3
			c-0.4,5.9,0.4,11.8,2.8,17.8c-1-0.8-1.9-1.6-2.8-2.4c-6.7-5.8-11.7-10.7-13.8-12.7c0.1,0.1,0.1,0.2,0.2,0.2c0.1,0,0.1,0.1,0.1,0.1
			c1.1,1.2,2.8,3.1,5,5.5c0.3,0.4,0.7,0.7,1,1.1c0.2,0.3,0.4,0.5,0.7,0.7c0.5,0.5,1,1.1,1.5,1.7c0.1,0.1,0.2,0.2,0.2,0.3
			c0.6,0.7,1.3,1.5,2,2.3c0.2,0.2,0.3,0.4,0.5,0.6c0.2,0.2,0.4,0.4,0.6,0.7c-3.1,0.7-6.3,1.4-9.5,2c-1.6,0.3-3.2,0.6-4.8,0.9
			c-6.2,1.2-12.4,2.4-18.5,4c-0.7,0.2-1.3,0.3-2,0.5c-0.6,0.2-1.3,0.3-1.9,0.5c-0.5,0.1-1,0.3-1.6,0.5c-0.1,0-0.1,0-0.2,0.1
			c-2.2,0.7-4.4,1.4-6.6,2.2c-1.1,0.4-2.1,0.8-3.1,1.2c-0.7,0.3-1.3,0.6-2,0.9c-0.1,0-0.2,0.1-0.3,0.1c9.2-11.9,18.3-21.4,21.9-25
			c0,0,0,0,0,0c0.4-0.4,0.8-0.8,1-1l0,0c-2,1.7-8.9,7.6-18.3,14.7c-0.1-20.6-7.3-40.3-16.4-59.1c0,0,0,0,0-0.1
			c14.8,10.3,27.1,22.2,31.7,26.7c-0.3-0.4-0.7-0.8-1.2-1.3c0,0,0,0,0,0c-0.3-0.3-0.6-0.7-1-1.1c-0.1-0.2-0.3-0.3-0.5-0.5
			c-1.5-1.7-3.4-3.8-5.5-6.3c-0.3-0.4-0.7-0.8-1.1-1.2c-0.2-0.2-0.4-0.5-0.6-0.7c-0.3-0.3-0.6-0.7-0.9-1.1c-0.9-1.1-1.8-2.2-2.8-3.4
			c-0.6-0.8-1.3-1.6-1.9-2.4c-0.6-0.8-1.3-1.6-2-2.5c-1-1.4-2.1-2.8-3.2-4.2c-0.3-0.4-0.7-0.9-1-1.3c-1-1.3-1.9-2.6-2.9-4
			c15.9,1.2,25.9,14.2,40,18.9c4,2,8.9,2.5,13.3,0.3c-6.2,7.5-11.2,12.7-12.5,14l0,0c0.3-0.3,0.7-0.7,1.4-1.3c0,0,0,0,0.1-0.1
			C381.5,112.6,394.8,101,410.6,90.6z"/>
		<path class="st8" d="M343.8,147.3c-0.7,0.5-1.3,1-2,1.5c-15.1-13.7-13.1-37.7-23.3-53c-7.2-11.7-19.2-20.3-32.5-25.2
			c-0.1-0.1-0.2-0.1-0.3-0.1c13.4,0.5,28.6,8.4,41.7,17.6c0,0,0,0,0,0.1C336.6,107,343.7,126.7,343.8,147.3z"/>
		<path class="st7" d="M305.5,171.7c-2.2,1.1-4.4,2.1-6.5,3.1c-6.1-10.7-9.3-21.6-16.5-30.9c-6.6-9.1-16.3-14.1-26.8-16.2
			c0,0-0.1,0-0.1,0c1.1-4.9,0.6-10.2-1.6-15c-1.3-2.9-2.1-6.1-2-9.7l0.1,0.1c1.1,1.1,2.3,1.9,3.7,2.2
			C283.9,115.8,309,141.9,305.5,171.7z"/>
		<path class="st6" d="M305.5,171.7c3.6-29.8-21.6-55.9-49.8-66.5c-1.4-0.3-2.6-1.1-3.7-2.2l-0.1-0.1c0.1-6.5,3.1-14.1,11.1-22.8
			c0,0,0.1,0,0.1,0.1c28.8,13.2,37.3,58.2,57.6,82.9C315.8,166.2,310.6,169.1,305.5,171.7z"/>
		<path class="st9" d="M420.3,48.7c-1.7,7-4.9,14.3-8.8,21.5c-30.9-4.3-64.8-28.5-91.4-9.1c0,0,0,0,0,0c-1.4-2.8-2.6-5.7-3.6-8.5
			c0,0,0,0,0,0c6.2-4.2,13-7.2,20.5-6.3C365.4,50.6,395.2,59.7,420.3,48.7z"/>
		<path class="st10" d="M411.5,70.2c-3.6,6.7-7.9,13.2-12.3,19.2c-18.7,4.5-41-6.1-56.8-19c-4.9-4.9-11.3-3.3-17.6-0.4h0
			c-0.2-0.4-0.4-0.7-0.6-1.1c-0.6-1-1.1-2-1.7-3c-0.9-1.6-1.7-3.2-2.4-4.8c0,0,0,0,0,0C346.8,41.8,380.6,65.9,411.5,70.2z"/>
		<path class="st3" d="M452.2,71.9c-4.9,22.2-24.9,32.4-41.6,48c-7.9,6.8-12.9,18.3-12.7,30.6c-1.1-0.9-2.2-1.9-3.3-2.8
			c-2.4-6-3.2-12-2.8-17.8c0.1-0.8,0.1-1.5,0.2-2.3c0.7-5.7,2.6-11.3,5.2-16.8c0.2-0.4,0.4-0.9,0.7-1.3c2.1-4.1,4.6-8.1,7.3-12
			c0.5-0.6,0.9-1.3,1.4-1.9c0.3-0.4,0.6-0.8,0.9-1.2c1-1.3,2.1-2.7,3.1-4C424,81.8,439,73.8,452.2,71.9z"/>
		<path class="st4" d="M470.8,74.4c-3.6,7-8.4,13.1-14.8,17.4c-25.4,15.7-47.5,38-47.5,66.8c-3.7-2.7-7.3-5.5-10.6-8.2
			c-0.2-12.3,4.8-23.8,12.7-30.6c16.8-15.6,36.7-25.8,41.6-48C459.1,70.9,465.5,71.5,470.8,74.4z"/>
		<path class="st2" d="M472,117.2c-15,17.3-47,29.6-45,53.4c-6.4-3.5-12.6-7.6-18.5-11.9c0-28.8,22.1-51.1,47.5-66.8
			c6.4-4.2,11.2-10.4,14.8-17.4c3.1,1.7,5.9,4.3,8.3,7.8c0,0,0,0,0,0.1C480.5,95,480.1,108,472,117.2z"/>
		<path class="st1" d="M486.6,113.6c-2.5,6.8-3.4,14-2.1,21c-10.9,1-20.7,9.5-25.8,18.7c-5.2,7.8-6.5,17.9-2.7,26.6
			c-9-0.1-19.1-3.9-29-9.3c-2-23.7,30-36.1,45-53.4c8.1-9.1,8.5-22.2,7.1-34.9C488.5,96.6,489.2,106.7,486.6,113.6z"/>
		<path class="st4" d="M395.4,152.9c-1.1,2.8-4.1,4.7-6.2,5.7c-19.2,12.3-41.9,13.5-62.5,18.2c3.8-6.3,8.2-12.4,12.5-18
			c0.1,0,0.2-0.1,0.3-0.1c0.7-0.3,1.3-0.6,2-0.9c1-0.4,2.1-0.8,3.1-1.2c2.2-0.8,4.4-1.5,6.6-2.2c0.1,0,0.1,0,0.2-0.1
			c0.5-0.2,1-0.3,1.6-0.5c0.6-0.2,1.3-0.4,1.9-0.5c0.7-0.2,1.3-0.4,2-0.5c6.1-1.6,12.3-2.8,18.5-4c1.6-0.3,3.2-0.6,4.8-0.9
			c3.2-0.6,6.4-1.3,9.5-2C391.5,148,393.4,150.3,395.4,152.9z"/>
	</g>
</g>
</svg>
